<svg xmlns="http://www.w3.org/2000/svg" viewBox="0 0 16 16" width="16" height="16">
	<style>
		tspan { white-space:pre }
		.shp0 { fill: none } 
		.shp1 { fill: #2d89ef;stroke: #000000;stroke-linejoin:round;stroke-width: 0 } 
		.shp2 { fill: #ffffff } 
	</style>
	<g id="layer1">
		<g id="checkbox-checked-dark">
			<g id="checkbox-unchecked-5-59">
				<g id="sdsd-7-54">
					<g id="scdsdcd-5-8">
						<g id="g15812-6-6-1-5-4">
							<g id="g5489-2-9-6-8-8-53-5">
								<g id="g5428-8-1-4-0-0-4-2">
								</g>
							</g>
						</g>
						<path id="rect13523-7-11" class="shp0" d="M0 0L16 0L16 16L0 16L0 0Z" />
						<g id="g5400-6-68">
							<path id="rect5147-9-1-5-7-6-7-4" class="shp1" d="M3 1L13 1C14.11 1 15 1.89 15 3L15 13C15 14.11 14.11 15 13 15L3 15C1.89 15 1 14.11 1 13L1 3C1 1.89 1.89 1 3 1Z" />
						</g>
					</g>
				</g>
			</g>
			<g id="checkbox-checked-dark-7-37">
				<g id="g3981-6-4-97" style="opacity: 0.851">
				</g>
				<g id="g4049-2-5">
					<g id="g4056-7-6">
						<g id="g3981-0-8">
							<path id="rect3977-39-90" class="shp2" d="M5.39 7.02L7.98 9.61C8.24 9.88 8.24 10.3 7.98 10.56L7.51 11.03C7.25 11.29 6.82 11.29 6.56 11.03L3.97 8.44C3.71 8.18 3.71 7.75 3.97 7.49L4.44 7.02C4.7 6.76 5.12 6.76 5.39 7.02Z" />
							<path id="rect3979-7-60" class="shp2" d="M11.28 4.43L12.69 5.84L7.04 11.5L5.62 10.09L11.28 4.43Z" />
						</g>
						<path id="rect4047-81-5" class="shp0" d="M4.91 6.55L7.04 8.67L6.33 9.38L4.21 7.26L4.91 6.55Z" />
					</g>
				</g>
			</g>
		</g>
	</g>
</svg>