<svg xmlns="http://www.w3.org/2000/svg" viewBox="0 0 16 16" width="16" height="16">
	<style>
		tspan { white-space:pre }
		.shp0 { fill: #2d89ef } 
	</style>
	<g id="layer9">
	</g>
	<g id="layer10">
	</g>
	<g id="layer11">
	</g>
	<g id="layer13">
	</g>
	<g id="layer14">
	</g>
	<g id="layer15">
	</g>
	<g id="g71291">
	</g>
	<g id="g4953">
	</g>
	<g id="layer12">
		<path id="path6040" class="shp0" d="M6.18 4C6.19 4 6.19 4 6.2 4C6.21 4 6.22 4 6.23 4C6.24 4 6.25 4 6.25 4.01C6.26 4.01 6.27 4.01 6.28 4.01C6.32 4.01 6.35 4.02 6.39 4.03C6.43 4.04 6.46 4.05 6.5 4.07C6.53 4.09 6.56 4.1 6.59 4.13C6.62 4.15 6.65 4.17 6.68 4.2L10.04 7.52L10.5 8L10.04 8.48L6.68 11.8C6.63 11.85 6.58 11.88 6.53 11.91C6.47 11.94 6.42 11.97 6.35 11.98C6.29 12 6.23 12 6.17 12C6.1 12 6.04 11.98 5.98 11.97C5.94 11.98 5.9 11.99 5.86 11.99C5.67 11.99 5.52 11.84 5.52 11.66C5.52 11.61 5.53 11.57 5.55 11.54C5.53 11.48 5.52 11.42 5.51 11.35C5.51 11.29 5.52 11.23 5.53 11.17C5.55 11.11 5.57 11.05 5.6 10.99C5.63 10.94 5.67 10.89 5.71 10.85L8.59 8L5.71 5.15C5.67 5.11 5.62 5.06 5.59 5C5.56 4.94 5.53 4.88 5.52 4.82C5.5 4.75 5.5 4.69 5.5 4.62C5.51 4.56 5.52 4.49 5.54 4.43C5.54 4.4 5.52 4.37 5.52 4.34C5.52 4.16 5.67 4.01 5.86 4.01C5.9 4.01 5.94 4.02 5.97 4.03C5.99 4.03 6.01 4.02 6.02 4.02C6.04 4.01 6.06 4.01 6.07 4.01C6.09 4.01 6.11 4 6.12 4C6.14 4 6.16 4 6.18 4L6.18 4Z" />
	</g>
</svg>