<svg xmlns="http://www.w3.org/2000/svg" viewBox="0 0 16 16" width="16" height="16">
	<style>
		tspan { white-space:pre }
		.shp0 { fill: #2d89ef } 
	</style>
	<g id="layer9">
	</g>
	<g id="layer10">
	</g>
	<g id="layer11">
	</g>
	<g id="layer13">
	</g>
	<g id="layer14">
	</g>
	<g id="layer15">
	</g>
	<g id="g71291">
	</g>
	<g id="g4953">
	</g>
	<g id="layer12">
		<path id="path6040" class="shp0" d="M9.82 4C9.81 4 9.81 4 9.8 4C9.79 4 9.78 4 9.77 4C9.76 4 9.75 4 9.75 4.01C9.74 4.01 9.73 4.01 9.72 4.01C9.68 4.01 9.65 4.02 9.61 4.03C9.57 4.04 9.54 4.05 9.5 4.07C9.47 4.09 9.44 4.1 9.41 4.13C9.38 4.15 9.35 4.17 9.32 4.2L5.96 7.52L5.5 8L5.96 8.48L9.32 11.8C9.37 11.85 9.42 11.88 9.47 11.91C9.53 11.94 9.58 11.97 9.65 11.98C9.71 12 9.77 12 9.83 12C9.9 12 9.96 11.98 10.02 11.97C10.06 11.98 10.1 11.99 10.14 11.99C10.33 11.99 10.48 11.84 10.48 11.66C10.48 11.61 10.47 11.57 10.45 11.54C10.47 11.48 10.48 11.42 10.49 11.35C10.49 11.29 10.48 11.23 10.47 11.17C10.45 11.11 10.43 11.05 10.4 10.99C10.37 10.94 10.33 10.89 10.29 10.85L7.41 8L10.29 5.15C10.33 5.11 10.38 5.06 10.41 5C10.44 4.94 10.47 4.88 10.48 4.82C10.5 4.75 10.5 4.69 10.5 4.62C10.49 4.56 10.48 4.49 10.46 4.43C10.46 4.4 10.48 4.37 10.48 4.34C10.48 4.16 10.33 4.01 10.14 4.01C10.1 4.01 10.06 4.02 10.03 4.03C10.01 4.03 9.99 4.02 9.98 4.02C9.96 4.01 9.94 4.01 9.93 4.01C9.91 4.01 9.89 4 9.88 4C9.86 4 9.84 4 9.82 4L9.82 4Z" />
	</g>
</svg>